# xmcd
#
# Track frame offsets: 
#        150
#        20383
#        44991
#        68624
#        89896
#        109252
#        126237
#        144729
#        166427
#        189454
#        209953
#        227181
#        251181
#        271264
#
# Disc length: 3913 seconds
#
# Revision: 0
# Processed by: cddbd v1.5.2PL0 Copyright (c) Steve Scherf et al.
# Submitted via: ExactAudioCopy v0.95b4
#
DISCID=e40f470e
DTITLE=Amani Souissi - Ana Mesh Malak
DYEAR=2010
DGENRE=Other
TTITLE0=Heya Jazzati
TTITLE1=Fee El Helm
TTITLE2=Lahzet Ghadab
TTITLE3=Ma Feya Aoulak
TTITLE4=Seed El Nas
TTITLE5=Seebni Ahebak
TTITLE6=Erga'lohm
TTITLE7=Ana Mesh Malak [Enssana Adyya]
TTITLE8=Babte'd Annak
TTITLE9=Mesh Mertahalo
TTITLE10=Lamseen El Ard
TTITLE11=Men Waraya
TTITLE12=El Ahad El Gedid
TTITLE13=Ya Alby Ya Masskeen
EXTD=
EXTT0=
EXTT1=
EXTT2=
EXTT3=
EXTT4=
EXTT5=
EXTT6=
EXTT7=
EXTT8=
EXTT9=
EXTT10=
EXTT11=
EXTT12=
EXTT13=
PLAYORDER=
